HIERARCHY
ROOT Hips
{
 OFFSET 0.000000 0.000000 0.000000
 CHANNELS 6 Xposition Yposition Zposition Yrotation Xrotation Zrotation
 JOINT Chest
 {
  OFFSET 0.000000 9.585900 0.002600
  CHANNELS 3 Yrotation Xrotation Zrotation
  JOINT Chest2
  {
   OFFSET 0.000000 9.601200 -0.005300
   CHANNELS 3 Yrotation Xrotation Zrotation
   JOINT Chest3
   {
    OFFSET 0.000000 9.561800 0.000000
    CHANNELS 3 Yrotation Xrotation Zrotation
    JOINT Chest4
    {
     OFFSET 0.000000 9.552100 0.000000
     CHANNELS 3 Yrotation Xrotation Zrotation
     JOINT Neck
     {
      OFFSET 0.000000 14.453000 0.000000
      CHANNELS 3 Yrotation Xrotation Zrotation
      JOINT Head
      {
       OFFSET 0.000000 8.936500 -0.011300
       CHANNELS 3 Yrotation Xrotation Zrotation
       End Site
       {
        OFFSET 0.000000 17.073600 -0.006000
       }
      }
     }
     JOINT RightCollar
     {
      OFFSET -2.921100 9.558500 0.000000
      CHANNELS 3 Yrotation Xrotation Zrotation
      JOINT RightShoulder
      {
       OFFSET -13.519700 0.000000 0.000000
       CHANNELS 3 Yrotation Xrotation Zrotation
       JOINT RightElbow
       {
        OFFSET 0.000000 -29.696600 0.000000
        CHANNELS 3 Yrotation Xrotation Zrotation
        JOINT RightWrist
        {
         OFFSET 0.000000 -24.004700 0.000000
         CHANNELS 3 Yrotation Xrotation Zrotation
         End Site
         {
          OFFSET 0.000000 -17.728500 0.000000
         }
        }
       }
      }
     }
     JOINT LeftCollar
     {
      OFFSET 2.921100 9.558500 0.000000
      CHANNELS 3 Yrotation Xrotation Zrotation
      JOINT LeftShoulder
      {
       OFFSET 13.519700 0.000000 0.000000
       CHANNELS 3 Yrotation Xrotation Zrotation
       JOINT LeftElbow
       {
        OFFSET 0.000000 -29.696600 0.000000
        CHANNELS 3 Yrotation Xrotation Zrotation
        JOINT LeftWrist
        {
         OFFSET 0.000000 -24.004700 0.000000
         CHANNELS 3 Yrotation Xrotation Zrotation
         End Site
         {
          OFFSET 0.000000 -17.728500 0.000000
         }
        }
       }
      }
     }
    }
   }
  }
 }
 JOINT RightHip
 {
  OFFSET -7.771700 -0.012900 -0.001300
  CHANNELS 3 Yrotation Xrotation Zrotation
  JOINT RightKnee
  {
   OFFSET 0.000000 -40.869800 0.001200
   CHANNELS 3 Yrotation Xrotation Zrotation
   JOINT RightAnkle
   {
    OFFSET 0.000000 -39.717900 0.002100
    CHANNELS 3 Yrotation Xrotation Zrotation
    JOINT RightToe
    {
     OFFSET 0.000000 -4.965400 11.033500
     CHANNELS 3 Yrotation Xrotation Zrotation
     End Site
     {
      OFFSET 0.000000 -1.423100 5.872300
     }
    }
   }
  }
 }
 JOINT LeftHip
 {
  OFFSET 7.771700 -0.012900 -0.001300
  CHANNELS 3 Yrotation Xrotation Zrotation
  JOINT LeftKnee
  {
   OFFSET 0.000000 -40.869800 0.001200
   CHANNELS 3 Yrotation Xrotation Zrotation
   JOINT LeftAnkle
   {
    OFFSET 0.000000 -39.717900 0.002100
    CHANNELS 3 Yrotation Xrotation Zrotation
    JOINT LeftToe
    {
     OFFSET 0.000000 -4.965400 11.033500
     CHANNELS 3 Yrotation Xrotation Zrotation
     End Site
     {
      OFFSET 0.000000 -1.423100 5.872300
     }
    }
   }
  }
 }
}
MOTION
Frames: 7
Frame Time: 0.008333
0.000000 85.388000 0.000000 0.000000 -5.767877 0.000000 0.000000 11.653817 0.000000 0.000000 -5.885947 0.000000 0.000000 -0.000000 0.000000 0.000000 -0.000000 0.000000 0.000000 12.528835 0.000000 0.000000 0.711642 0.000000 0.000000 -0.000000 0.000000 0.000000 0.000000 -90.000000 0.000000 -2.309062 0.000000 0.000000 2.309062 0.000000 0.000000 -0.000000 0.000000 0.000000 -0.000000 90.000000 0.000000 -2.309062 0.000000 0.000000 2.309062 0.000000 0.000000 8.520406 0.000000 0.000000 1.905762 0.000000 -0.000000 -4.658285 0.000000 0.000000 -0.000000 0.000000 0.000000 8.520406 0.000000 0.000000 1.905762 0.000000 -0.000000 -4.658285 0.000000 0.000000 -0.000000 0.000000
-10.892450 52.888173 14.222584 -179.010637 -16.569831 -2.514561 0.999659 15.428951 0.806677 0.087526 1.459218 0.073380 0.149742 2.452071 0.123365 0.914895 13.752756 0.796019 0.277946 18.007362 -2.400271 0.899385 -6.734633 -2.616715 0.187737 -1.459808 3.018800 -0.796484 -6.729789 -4.427421 -62.430766 -75.849328 89.844812 -6.822021 -7.579975 -8.771366 -5.874581 -2.028041 1.877020 4.239768 -4.138518 7.543383 62.147916 -62.375137 -96.809678 2.675208 -10.369186 10.239306 2.491172 -61.944915 11.227505 177.993149 86.179921 176.646299 -11.784335 -22.109008 13.585707 0.014392 -0.044895 -0.025825 3.804876 -60.538537 -2.354429 121.773177 77.722054 120.358986 -5.900080 -20.034529 -1.618949 0.038915 0.118533 0.020411
-10.894779 52.887439 14.221541 -179.019068 -16.563174 -2.504239 0.999086 15.423721 0.799901 0.087336 1.458909 0.073525 0.154103 2.450145 0.120883 0.913318 13.751192 0.797718 0.264468 18.006590 -2.401600 0.853792 -6.734631 -2.605862 0.189518 -1.455566 3.015936 -0.825461 -6.712886 -4.412633 -62.491127 -75.867866 89.926520 -6.827002 -7.599128 -8.784409 -5.880754 -2.028007 1.861958 4.229258 -4.138705 7.566229 62.154709 -62.384965 -96.843937 2.671782 -10.401780 10.255282 2.519139 -61.955265 11.223985 178.188260 86.178523 176.862946 -12.021196 -22.093864 13.636357 0.006589 -0.024910 -0.015203 3.819602 -60.545540 -2.368359 121.765319 77.716509 120.348685 -5.906367 -20.031229 -1.616273 0.037646 0.117842 0.017184
-10.896826 52.886550 14.220170 -179.019060 -16.556293 -2.499331 0.993593 15.422332 0.794957 0.087098 1.459086 0.073670 0.151667 2.443991 0.124022 0.915866 13.750480 0.796341 0.251312 18.004417 -2.403302 0.768577 -6.757179 -2.580121 0.184080 -1.447045 3.018462 -0.826094 -6.711776 -4.415280 -62.561972 -75.873638 90.000449 -6.826030 -7.613444 -8.797507 -5.882328 -2.028427 1.851202 4.224491 -4.138523 7.579810 62.161503 -62.403910 -96.876280 2.664552 -10.441091 10.256195 2.536561 -61.966030 11.226268 178.141338 86.176508 176.840395 -12.267735 -22.077393 13.680348 -0.000984 -0.011554 -0.004632 3.823363 -60.553212 -2.378753 121.760045 77.710633 120.340948 -5.906418 -20.030003 -1.615103 0.035618 0.117171 0.015349
-10.898706 52.885547 14.218385 -179.019429 -16.550777 -2.496589 0.992282 15.423034 0.792006 0.086349 1.462114 0.073042 0.147481 2.441402 0.125986 0.910905 13.762048 0.797781 0.228350 17.981967 -2.403975 0.726473 -6.778938 -2.567514 0.192122 -1.458505 3.013752 -0.826397 -6.715245 -4.414918 -62.634899 -75.876898 90.071436 -6.821687 -7.620761 -8.809953 -5.877106 -2.048889 1.841583 4.221297 -4.137755 7.594646 62.181849 -62.427463 -96.917344 2.656852 -10.491674 10.246717 2.556187 -61.973812 11.201820 178.034076 86.170886 176.732067 -12.277093 -22.078696 13.690010 0.001709 -0.014699 -0.002381 3.815239 -60.559541 -2.382336 121.754421 77.701628 120.331217 -5.899431 -20.033374 -1.617170 0.029949 0.119194 0.012295
-10.899722 52.884647 14.215727 -179.021098 -16.550178 -2.499911 0.995153 15.424671 0.795941 0.084228 1.470562 0.071573 0.150107 2.441231 0.127350 0.905999 13.768378 0.797380 0.172553 17.957702 -2.396501 0.727457 -6.795509 -2.570394 0.201768 -1.460107 3.008527 -0.833413 -6.722499 -4.408404 -62.718252 -75.889749 90.154341 -6.819708 -7.626500 -8.820805 -5.904378 -2.063542 1.823060 4.233017 -4.148712 7.631895 62.217890 -62.443015 -96.958515 2.652144 -10.549612 10.236532 2.553088 -61.973953 11.197803 177.911615 86.165999 176.600656 -12.230181 -22.086857 13.687431 0.005218 -0.018949 -0.002763 3.805521 -60.561351 -2.374187 121.769829 77.695972 120.347136 -5.898837 -20.039147 -1.619846 0.026913 0.120781 0.011833
-10.900597 52.883356 14.213907 -179.021864 -16.544272 -2.505315 0.994893 15.429181 0.798180 0.083102 1.470472 0.073568 0.146327 2.453789 0.125596 0.910919 13.752543 0.798985 0.143178 17.946312 -2.390927 0.730617 -6.803353 -2.574054 0.201015 -1.461431 3.007075 -0.840183 -6.722214 -4.414822 -62.772732 -75.890248 90.219577 -6.815352 -7.639050 -8.827003 -5.912821 -2.068277 1.816528 4.219977 -4.155768 7.654842 62.271439 -62.457954 -97.008967 2.649799 -10.606657 10.231205 2.555088 -61.981930 11.195725 177.871713 86.163053 176.562389 -12.207348 -22.091999 13.684772 0.006618 -0.020990 -0.001661 3.795552 -60.568545 -2.363588 121.780483 77.691500 120.358646 -5.900979 -20.045187 -1.620471 0.029279 0.123439 0.011794
